<svg width="82" height="30" viewBox="0 0 82 30" fill="none" xmlns="http://www.w3.org/2000/svg">
<path d="M20.3354 1.26786C20.5434 1.89237 20.572 2.3086 20.5728 2.9604C20.5731 3.16559 20.5734 3.37078 20.5736 3.58219C20.5728 3.79604 20.572 4.00988 20.5712 4.23021C20.572 4.44567 20.5728 4.66114 20.5736 4.88314C20.5734 5.08779 20.5731 5.29244 20.5728 5.50329C20.5726 5.69149 20.5723 5.87969 20.5721 6.07358C20.545 6.51095 20.545 6.51095 20.3354 6.72068C19.8847 6.74378 19.4333 6.75339 18.982 6.75754C18.698 6.76242 18.414 6.76748 18.1301 6.7727C17.684 6.77998 17.2381 6.78617 16.7921 6.78903C13.8907 6.81129 11.3115 7.33638 9.01688 9.23736C7.1594 11.2458 6.36452 13.384 6.38774 16.085C6.4773 18.163 7.3378 20.1279 8.80728 21.6111C9.77587 22.4016 10.8065 23.0376 11.912 23.6165C12.9682 24.1833 13.6593 24.8505 14.0473 26.0153C14.1597 27.365 14.008 28.0591 13.2089 29.1611C12.4724 29.7429 11.8303 29.9123 10.9033 30C7.1897 29.0842 4.11704 26.4584 2.10001 23.2888C0.0607969 19.9045 -0.482586 15.7899 0.423198 11.9638C1.48322 7.95974 3.84776 4.74376 7.34006 2.5262C10.7148 0.596056 16.8134 -1.34983 20.3354 1.26786Z" fill="#1924F6"/>
<path d="M17.1267 8.96208C17.4393 8.96735 17.7519 8.97213 18.0646 8.97641C18.822 8.98784 19.579 9.00586 20.3362 9.02762C20.7806 11.9064 21.2657 16.405 19.578 18.9567C18.3013 20.4868 16.9884 21.4503 14.9897 21.6684C13.1686 21.7408 12.0264 21.2782 10.6421 20.1036C9.14853 18.6735 8.65853 17.4731 8.56738 15.3972C8.65454 13.4167 9.42461 12.0135 10.715 10.5489C12.7302 8.98308 14.6824 8.88969 17.1267 8.96208Z" fill="#1924F6"/>
<path d="M73.7852 11.5443C79.2955 11.5443 79.2955 11.5443 80.6889 12.6716C81.3968 13.573 81.5836 14.1662 81.5273 15.3063C81.3915 16.392 81.0789 16.8853 80.2828 17.6263C79.7981 17.9147 79.7981 17.9147 79.4444 18.0458C79.7745 18.9535 80.2298 19.7705 80.7151 20.6018C81.5269 22.0035 81.5269 22.0035 81.75 22.45C80.8236 22.7266 80.1495 22.7907 79.2348 22.45C78.5928 21.6845 78.1599 20.7992 77.7321 19.9011C77.6014 19.6319 77.6014 19.6319 77.4679 19.3574C77.3939 19.1915 77.3199 19.0257 77.2437 18.8548C76.8779 18.3135 76.8779 18.3135 75.6716 18.2555C75.6716 19.6397 75.6716 21.0239 75.6716 22.45C75.0491 22.45 74.4265 22.45 73.7852 22.45C73.7852 18.8511 73.7852 15.2523 73.7852 11.5443ZM75.6716 13.2221C75.6716 14.3295 75.6716 15.4368 75.6716 16.5777C76.3719 16.6037 76.3719 16.6037 77.0864 16.6301C77.4803 16.6447 77.4803 16.6447 77.8822 16.6596C78.6119 16.6376 78.6119 16.6376 79.1128 16.2074C79.4596 15.7174 79.5635 15.4919 79.5623 14.8999C79.5669 14.7615 79.5715 14.6231 79.5762 14.4805C79.3643 13.8062 78.9888 13.5842 78.3964 13.2221C77.6942 13.1213 77.6942 13.1213 76.9685 13.1697C76.3265 13.1957 76.3265 13.1957 75.6716 13.2221Z" fill="white"/>
<path d="M66.0297 11.5443C66.7905 11.5443 67.5514 11.5443 68.3353 11.5443C69.332 14.1825 70.3196 16.8239 71.2828 19.4745C71.3653 19.6994 71.4479 19.9243 71.5329 20.1561C71.6084 20.3651 71.684 20.5741 71.7618 20.7894C71.8288 20.9737 71.8958 21.158 71.9649 21.348C72.1081 21.8208 72.1081 21.8208 72.1081 22.45C71.4164 22.45 70.7248 22.45 70.0121 22.45C69.8046 21.8271 69.5971 21.2042 69.3833 20.5625C67.9308 20.4933 66.4782 20.424 64.9817 20.3527C64.7742 21.0448 64.5666 21.7369 64.3529 22.45C63.6612 22.45 62.9695 22.45 62.2568 22.45C63.4568 18.7923 64.7085 15.16 66.0297 11.5443ZM67.0777 14.2707C66.5935 15.7241 66.1093 17.1775 65.6105 18.6749C66.648 18.6749 67.6855 18.6749 68.7545 18.6749C68.3643 17.1522 67.9046 15.7161 67.2873 14.2707C67.2181 14.2707 67.1489 14.2707 67.0777 14.2707Z" fill="white"/>
<path d="M36.6715 11.8589C37.6495 12.3711 38.3874 13.1419 38.9903 14.061C39.1344 14.5329 39.1344 14.5329 39.1999 14.8999C38.4224 14.9603 37.6698 14.9933 36.8942 14.8999C36.3964 14.4018 36.3964 14.4018 36.0558 13.8513C35.1516 13.3085 34.1459 13.2947 33.1214 13.4319C32.2026 13.7161 31.6292 14.19 31.1433 15.0179C30.5885 16.2981 30.6154 17.6541 31.0516 18.9633C31.6626 19.8192 32.1748 20.4205 33.1984 20.696C34.4076 20.867 35.2136 20.7659 36.2654 20.143C36.3578 19.9978 36.4502 19.8527 36.5454 19.7031C36.8942 19.3041 36.8942 19.3041 37.46 19.2222C37.6667 19.2319 37.8734 19.2417 38.0864 19.2517C38.2947 19.2593 38.503 19.2668 38.7176 19.2746C38.8768 19.2844 39.0359 19.2941 39.1999 19.3041C38.6336 20.8125 37.9055 21.615 36.4677 22.2902C34.9212 22.8901 33.2356 22.8475 31.6894 22.2616C30.2264 21.5178 29.2814 20.4146 28.7198 18.8847C28.2602 17.3137 28.4847 15.749 29.139 14.2708C30.8075 11.7557 33.7939 10.7301 36.6715 11.8589Z" fill="white"/>
<path d="M41.0879 11.5443C43.0938 11.5443 45.0997 11.5443 47.1663 11.5443C47.1663 12.098 47.1663 12.6517 47.1663 13.2221C45.783 13.2221 44.3996 13.2221 42.9743 13.2221C42.9743 14.1911 42.9743 15.16 42.9743 16.1583C44.2193 16.1583 45.4644 16.1583 46.7471 16.1583C46.7471 16.7119 46.7471 17.2656 46.7471 17.8361C45.5021 17.8361 44.2571 17.8361 42.9743 17.8361C42.9743 18.8742 42.9743 19.9123 42.9743 20.9819C44.3577 20.9819 45.7411 20.9819 47.1663 20.9819C47.1663 21.4664 47.1663 21.9508 47.1663 22.45C45.1605 22.45 43.1546 22.45 41.0879 22.45C41.0879 18.8511 41.0879 15.2523 41.0879 11.5443Z" fill="white"/>
<path d="M26.9118 7.91354C27.696 8.60484 28.0225 9.1543 28.1645 10.1992C28.2262 11.3854 28.1389 12.2259 27.3531 13.1443C26.624 13.82 25.9253 14.0931 24.9468 14.1397C23.9824 14.0956 23.247 13.8241 22.5478 13.1321C21.6991 12.1567 21.5179 11.3873 21.5342 10.1353C21.6565 9.14274 22.2496 8.56688 22.9555 7.91354C24.2001 7.07297 25.6138 7.2642 26.9118 7.91354Z" fill="#1924F6"/>
<path d="M55.9678 11.5443C56.5903 11.5443 57.2128 11.5443 57.8542 11.5443C57.8542 14.6587 57.8542 17.7731 57.8542 20.9819C59.0992 20.9819 60.3443 20.9819 61.627 20.9819C61.627 21.4664 61.627 21.9508 61.627 22.45C59.7595 22.45 57.8919 22.45 55.9678 22.45C55.9678 18.8511 55.9678 15.2523 55.9678 11.5443Z" fill="white"/>
<path d="M49.2607 11.5443C49.8833 11.5443 50.5058 11.5443 51.1472 11.5443C51.1472 14.6587 51.1472 17.7731 51.1472 20.9819C52.3922 20.9819 53.6372 20.9819 54.92 20.9819C54.92 21.4664 54.92 21.9508 54.92 22.45C53.0524 22.45 51.1849 22.45 49.2607 22.45C49.2607 18.8511 49.2607 15.2523 49.2607 11.5443Z" fill="white"/>
</svg>
