<svg width="29" height="30" viewBox="0 0 29 30" fill="none" xmlns="http://www.w3.org/2000/svg">
<path d="M20.3354 1.26786C20.5434 1.89237 20.572 2.3086 20.5728 2.9604C20.5731 3.16559 20.5734 3.37078 20.5736 3.58219C20.5728 3.79604 20.572 4.00988 20.5712 4.23021C20.572 4.44567 20.5728 4.66114 20.5736 4.88314C20.5734 5.08779 20.5731 5.29244 20.5728 5.50329C20.5726 5.69149 20.5723 5.87969 20.5721 6.07358C20.545 6.51095 20.545 6.51095 20.3354 6.72068C19.8847 6.74378 19.4333 6.75339 18.982 6.75754C18.698 6.76242 18.414 6.76748 18.1301 6.7727C17.684 6.77998 17.2381 6.78617 16.7921 6.78903C13.8907 6.81129 11.3115 7.33638 9.01688 9.23736C7.1594 11.2458 6.36452 13.384 6.38774 16.085C6.4773 18.163 7.3378 20.1279 8.80728 21.6111C9.77587 22.4016 10.8065 23.0376 11.912 23.6165C12.9682 24.1833 13.6593 24.8505 14.0473 26.0153C14.1597 27.365 14.008 28.0591 13.2089 29.1611C12.4724 29.7429 11.8303 29.9123 10.9033 30C7.1897 29.0842 4.11704 26.4584 2.10001 23.2888C0.0607969 19.9045 -0.482586 15.7899 0.423198 11.9638C1.48322 7.95974 3.84776 4.74376 7.34006 2.5262C10.7148 0.596056 16.8134 -1.34983 20.3354 1.26786Z" fill="#1924F6"/>
<path d="M17.1267 8.96208C17.4393 8.96735 17.7519 8.97213 18.0646 8.97641C18.822 8.98784 19.579 9.00586 20.3362 9.02762C20.7806 11.9064 21.2657 16.405 19.578 18.9567C18.3013 20.4868 16.9884 21.4503 14.9897 21.6684C13.1686 21.7408 12.0264 21.2782 10.6421 20.1036C9.14853 18.6735 8.65853 17.4731 8.56738 15.3972C8.65454 13.4167 9.42461 12.0135 10.715 10.5489C12.7302 8.98308 14.6824 8.88969 17.1267 8.96208Z" fill="#1924F6"/>
<path d="M26.9118 7.91354C27.696 8.60484 28.0225 9.1543 28.1645 10.1992C28.2262 11.3854 28.1389 12.2259 27.3531 13.1443C26.624 13.82 25.9253 14.0931 24.9468 14.1397C23.9824 14.0956 23.247 13.8241 22.5478 13.1321C21.6991 12.1567 21.5179 11.3873 21.5342 10.1353C21.6565 9.14274 22.2496 8.56688 22.9555 7.91354C24.2001 7.07297 25.6138 7.2642 26.9118 7.91354Z" fill="#1924F6"/>
</svg>
