<svg width="14" height="14" viewBox="0 0 14 14" fill="none" xmlns="http://www.w3.org/2000/svg">
<path fill-rule="evenodd" clip-rule="evenodd" d="M3 0C1.34315 0 0 1.34315 0 3V11C0 12.6569 1.34315 14 3 14H5.90909V9.2H4V6.8H5.90909V5C5.90909 4.20435 6.24432 3.44129 6.84102 2.87868C7.43773 2.31607 8.24704 2 9.09091 2H11V4.4H9.09091C8.92213 4.4 8.76027 4.46321 8.64093 4.57574C8.52159 4.68826 8.45455 4.84087 8.45455 5V6.8H11L10.3636 9.2H8.45455V14H11C12.6569 14 14 12.6569 14 11V3C14 1.34315 12.6569 0 11 0H3Z" fill="white" fill-opacity="0.5"/>
</svg>
