<svg width="14" height="14" viewBox="0 0 14 14" fill="none" xmlns="http://www.w3.org/2000/svg">
<path fill-rule="evenodd" clip-rule="evenodd" d="M3.5 0H10.5C12.433 0 14 1.567 14 3.5V10.5C14 12.433 12.433 14 10.5 14H3.5C1.567 14 0 12.433 0 10.5V3.5C0 1.567 1.567 0 3.5 0ZM10.8499 2.3999C10.4357 2.3999 10.0999 2.73569 10.0999 3.1499C10.0999 3.56412 10.4357 3.8999 10.8499 3.8999H10.8569C11.2712 3.8999 11.6069 3.56412 11.6069 3.1499C11.6069 2.73569 11.2712 2.3999 10.8569 2.3999H10.8499ZM6.08606 5.14999C6.46879 4.9514 6.9044 4.87854 7.33093 4.94179C7.766 5.00631 8.16879 5.20904 8.4798 5.52005C8.7908 5.83105 8.99354 6.23384 9.05805 6.66891C9.1213 7.09544 9.04845 7.53105 8.84985 7.91379C8.65126 8.29652 8.33704 8.60689 7.95189 8.80075C7.56673 8.99461 7.13026 9.06208 6.70454 8.99358C6.27883 8.92508 5.88556 8.72408 5.58066 8.41919C5.27576 8.11429 5.07477 7.72101 5.00626 7.2953C4.93776 6.86959 5.00524 6.43311 5.1991 6.04796C5.39295 5.6628 5.70332 5.34858 6.08606 5.14999ZM7.55095 3.45801C6.81234 3.34849 6.05799 3.47465 5.3952 3.81855C4.73242 4.16246 4.19495 4.7066 3.85924 5.37357C3.52354 6.04055 3.40669 6.79639 3.52531 7.5336C3.64394 8.27082 3.99201 8.95185 4.52 9.47985C5.04799 10.0078 5.72903 10.3559 6.46624 10.4745C7.20345 10.5932 7.9593 10.4763 8.62627 10.1406C9.29325 9.80489 9.83738 9.26743 10.1813 8.60464C10.5252 7.94186 10.6514 7.18751 10.5418 6.44889C10.4301 5.69547 10.079 4.99796 9.54046 4.45939C9.00188 3.92081 8.30437 3.56974 7.55095 3.45801Z" fill="white" fill-opacity="0.5"/>
</svg>
