<svg width="15" height="14" viewBox="0 0 15 14" fill="none" xmlns="http://www.w3.org/2000/svg">
<path d="M10.5 4.42105C11.6935 4.42105 12.8381 4.88684 13.682 5.71595C14.5259 6.54506 15 7.66957 15 8.84211V14H12V8.84211C12 8.45126 11.842 8.07642 11.5607 7.80005C11.2794 7.52368 10.8978 7.36842 10.5 7.36842C10.1022 7.36842 9.72064 7.52368 9.43934 7.80005C9.15804 8.07642 9 8.45126 9 8.84211V14H6V8.84211C6 7.66957 6.47411 6.54506 7.31802 5.71595C8.16193 4.88684 9.30653 4.42105 10.5 4.42105Z" fill="white" fill-opacity="0.5"/>
<path d="M3 5.15789H0V14H3V5.15789Z" fill="white" fill-opacity="0.5"/>
<path d="M1.5 2.94737C2.32843 2.94737 3 2.28758 3 1.47368C3 0.659791 2.32843 0 1.5 0C0.671573 0 0 0.659791 0 1.47368C0 2.28758 0.671573 2.94737 1.5 2.94737Z" fill="white" fill-opacity="0.5"/>
</svg>
